<?xml version="1.0" encoding="UTF-8" standalone="no"?>
<!-- Created with Inkscape (http://www.inkscape.org/) -->
<svg xmlns:dc="http://purl.org/dc/elements/1.1/" xmlns:cc="http://creativecommons.org/ns#" xmlns:rdf="http://www.w3.org/1999/02/22-rdf-syntax-ns#" xmlns:svg="http://www.w3.org/2000/svg" xmlns="http://www.w3.org/2000/svg" version="1.1" width="744.09448" height="1052.3622" id="svg5105">
  <defs id="defs5107"/>
  <g id="layer1">
    <g transform="translate(-982.17251,-244.96014)" id="g5131">
      <path d="m 1375.6729,624.00063 c -30.7348,0 -58.0373,14.7096 -75.25,37.46875 -14.5938,-9.26757 -31.9011,-14.625 -50.4688,-14.625 -46.8762,0 -85.7683,34.21646 -93.0625,79.03125 -43.0734,8.7073 -75.5312,46.76545 -75.5312,92.40625 0,52.07256 42.2399,94.28125 94.3125,94.28125 21.2357,0 40.8317,-7.0284 56.5937,-18.875 9.1676,2.97269 18.9356,4.59375 29.0938,4.59375 9.8334,0 19.3376,-1.51965 28.25,-4.3125 16.7195,15.10442 38.8812,24.3125 63.1875,24.3125 24.6804,0 47.1627,-9.47919 63.9687,-25 15.1389,10.35953 33.4585,16.40625 53.1875,16.40625 15.6575,0 30.4112,-3.80895 43.4063,-10.5625 6.2741,1.31526 12.7725,2 19.4375,2 52.0725,0 94.2812,-42.20869 94.2812,-94.28125 0,-52.07256 -42.2087,-94.28125 -94.2812,-94.28125 -0.5112,0 -1.022,0.0231 -1.5313,0.0312 -16.7881,-20.34247 -41.9342,-33.52832 -70.1875,-34.28125 -15.0406,-32.09369 -47.6198,-54.3125 -85.4062,-54.3125 z" id="path5037" style="fill:#e6e6e6;fill-opacity:1;stroke:none"/>
      <path d="m 1375.6416,619.98498 c -30.7714,0 -58.1687,14.27114 -76.1875,36.43751 -14.565,-8.53249 -31.4502,-13.5625 -49.5313,-13.5625 -47.8941,0 -87.7571,34.34003 -96.4374,79.74999 -43.6005,10.06429 -76.125,49.07889 -76.125,95.6875 0,54.2341 44.0472,98.28125 98.2812,98.28125 21.3791,0 41.1766,-6.89264 57.3125,-18.5 9.0039,2.71821 18.5237,4.21875 28.4063,4.21875 9.4809,0 18.6317,-1.39656 27.3124,-3.90625 17.2155,14.84941 39.6225,23.90625 64.125,23.90625 24.5985,0 47.0431,-9.1417 64.2813,-24.09375 15.2704,9.77098 33.3842,15.5 52.8437,15.5 15.8142,0 30.7532,-3.78999 44,-10.4375 6.1241,1.19179 12.4177,1.875 18.875,1.875 54.2342,0 98.2813,-44.04716 98.2813,-98.28125 0,-54.17089 -43.9465,-98.17876 -98.0937,-98.28125 -16.9956,-19.74901 -41.7321,-32.65243 -69.4688,-34.06251 -16.1207,-32.27551 -49.3856,-54.53124 -87.875,-54.53124 z m 0,8.00001 c 36.2163,0 67.4131,21.30598 81.8125,52.03123 a 4.0004,4.0004 0 0 0 3.5313,2.3125 c 27.0615,0.72951 51.1144,13.33644 67.1874,32.81251 a 4.0004,4.0004 0 0 0 3.1563,1.46875 c 0.5879,-0.009 1.0784,-0.0312 1.4687,-0.0312 49.9112,0 90.2813,40.37022 90.2813,90.28125 0,49.91103 -40.3702,90.28125 -90.2813,90.28125 -6.4009,0 -12.6477,-0.64501 -18.6562,-1.90625 a 4.0004,4.0004 0 0 0 -2.6562,0.3437 c -12.4377,6.46025 -26.5627,10.125 -41.5626,10.125 -18.9177,0 -36.4342,-5.81995 -50.9374,-15.75 a 4.0004,4.0004 0 0 0 -4.9688,0.375 c -16.1011,14.87414 -37.5599,23.96875 -61.2188,23.96875 -23.2947,0 -44.4854,-8.81452 -60.5,-23.28125 a 4.0004,4.0004 0 0 0 -3.875,-0.84375 c -8.5404,2.67897 -17.6299,4.125 -27.0624,4.125 -9.7392,0 -19.0931,-1.55704 -27.875,-4.40625 a 4.0004,4.0004 0 0 0 -3.6563,0.625 c -15.0964,11.34565 -33.8352,18.0625 -54.1875,18.0625 -49.911,0 -90.2812,-40.37023 -90.2812,-90.28125 0,-43.75519 31.0624,-80.17399 72.3124,-88.5 a 4.0004,4.0004 0 0 0 3.1563,-3.25 c 6.9849,-42.9091 44.1648,-75.68749 89.0937,-75.68749 17.7963,0 34.3388,5.12719 48.3126,13.99998 a 4.0004,4.0004 0 0 0 5.3437,-0.96875 c 16.4857,-21.80894 42.5971,-35.90623 72.0625,-35.90623 z" id="path5039" style="font-size:medium;font-style:normal;font-variant:normal;font-weight:normal;font-stretch:normal;text-indent:0;text-align:start;text-decoration:none;line-height:normal;letter-spacing:normal;word-spacing:normal;text-transform:none;direction:ltr;block-progression:tb;writing-mode:lr-tb;text-anchor:start;baseline-shift:baseline;color:#000000;fill:#000000;fill-opacity:1;fill-rule:nonzero;stroke:none;stroke-width:8;marker:none;visibility:visible;display:inline;overflow:visible;enable-background:accumulate;font-family:Sans;-inkscape-font-specification:Sans"/>
      <path d="m 1374.3291,636.76624 c -35.258,0 -65.6322,21.4416 -79.5625,52.31249 0.1075,0.0695 0.2052,0.14877 0.3125,0.21875 16.0094,-21.79042 41.4046,-35.87499 70,-35.87499 28.6826,0 54.1519,14.18413 70.1563,36.09374 -0.2189,0.039 -0.4381,0.0844 -0.6563,0.125 3.4635,4.85882 6.467,10.07566 8.9687,15.59375 5.4214,0.15107 10.7326,0.80256 15.875,1.90625 0.1567,0.0322 0.3122,0.0606 0.4688,0.0937 12.6482,2.78767 24.2976,8.32556 34.3438,16 -0.1341,0.0335 -0.2725,0.0598 -0.4063,0.0937 5.1962,3.72848 9.9347,7.97387 14.1563,12.59375 0.5101,-0.007 1.0191,-0.0312 1.5312,-0.0312 52.1643,0 94.4375,38.20068 94.4375,85.3125 0,12.12575 -2.7939,23.64934 -7.8437,34.09375 11.1935,-14.01981 17.8124,-31.20779 17.8124,-49.8125 0,-47.11182 -42.2732,-85.3125 -94.4374,-85.3125 -0.4257,0 -0.857,0.0262 -1.2813,0.0312 -15.7922,-18.91107 -38.8525,-31.10549 -64.7187,-31.96875 -14.1021,-30.40817 -44.229,-51.46874 -79.1563,-51.46874 z m -123.9375,21.125 c -2.2098,-0.036 -4.4141,0.0385 -6.6562,0.1875 -34.2585,2.27702 -62.2544,25.82145 -73.0626,57.59374 13.6814,-23.05874 37.3916,-39.05046 65.3126,-40.90626 16.4365,-1.09247 32.1034,2.86133 45.5937,10.59375 3.2767,-5.23997 7.1138,-10.08606 11.375,-14.46875 -12.4925,-8.03158 -27.0938,-12.74782 -42.5625,-12.99998 z m 128.625,29.84374 c -24.8685,0.0657 -47.7566,10.09867 -64.1562,26.53125 1.8694,1.34176 3.7154,2.71725 5.4687,4.1875 17.6229,-12.54099 39.9812,-18.89233 63.5,-16.25 49.6063,5.57324 85.4334,49.04093 80.0313,97.125 -0.6719,5.97927 -1.9321,11.77416 -3.75,17.28125 5.0969,-9.40345 8.4577,-19.90123 9.7187,-31.125 5.4022,-48.08407 -30.425,-91.58301 -80.0313,-97.15625 -3.6199,-0.4067 -7.2286,-0.60314 -10.7812,-0.59375 z m -151.9375,25.21875 c -6.9318,0.005 -13.9732,0.79948 -21.0313,2.4375 -20.4654,4.74958 -37.7435,15.89577 -50.0624,30.71875 0.8633,-4.60055 2.1185,-9.05218 3.6874,-13.375 -26.6639,6.9561 -48.4359,25.43551 -59.3124,49.59375 12.852,-17.27652 31.9937,-29.8648 54.2187,-34.5 -12.4771,15.78433 -19.4749,35.48302 -19,56 5.4198,-34.77149 32.1285,-64.74041 69.4687,-73.40625 22.6976,-5.26761 45.308,-1.73598 64.0938,8.3125 4.4141,-2.54626 9.125,-4.73896 14.0312,-6.5625 -15.57,-12.21727 -35.2984,-19.23304 -56.0937,-19.21875 z" id="path5041" style="fill:#cccccc;fill-opacity:1;stroke:none"/>
    </g>
  </g>
  <metadata>
    <rdf:RDF>
      <cc:Work>
        <dc:format>image/svg+xml</dc:format>
        <dc:type rdf:resource="http://purl.org/dc/dcmitype/StillImage"/>
        <cc:license rdf:resource="http://creativecommons.org/licenses/publicdomain/"/>
        <dc:publisher>
          <cc:Agent rdf:about="http://openclipart.org/">
            <dc:title>Open Clip Art Library</dc:title>
          </cc:Agent>
        </dc:publisher>
        <dc:title>Simple Cloud</dc:title>
        <dc:date>2012-01-20T07:32:00</dc:date>
        <dc:description/>
        <dc:source>http://openclipart.org/detail/167267/simple-cloud-by-halattas</dc:source>
        <dc:creator>
          <cc:Agent>
            <dc:title>halattas</dc:title>
          </cc:Agent>
        </dc:creator>
        <dc:subject>
          <rdf:Bag>
            <rdf:li>Cloud</rdf:li>
            <rdf:li>Simple Cloud</rdf:li>
            <rdf:li>clip art</rdf:li>
            <rdf:li>clipart</rdf:li>
          </rdf:Bag>
        </dc:subject>
      </cc:Work>
      <cc:License rdf:about="http://creativecommons.org/licenses/publicdomain/">
        <cc:permits rdf:resource="http://creativecommons.org/ns#Reproduction"/>
        <cc:permits rdf:resource="http://creativecommons.org/ns#Distribution"/>
        <cc:permits rdf:resource="http://creativecommons.org/ns#DerivativeWorks"/>
      </cc:License>
    </rdf:RDF>
  </metadata>
</svg>
